<svg xmlns="http://www.w3.org/2000/svg" width="45" height="45" viewBox="0 0 45 45">
  <path id="Instagram_" data-name="Instagram " d="M22.5,0A22.5,22.5,0,1,0,45,22.5,22.5,22.5,0,0,0,22.5,0ZM35.342,27.827a9.479,9.479,0,0,1-.6,3.136,6.606,6.606,0,0,1-3.779,3.779,9.486,9.486,0,0,1-3.136.6c-1.378.063-1.818.078-5.327.078s-3.949-.015-5.327-.078a9.486,9.486,0,0,1-3.136-.6,6.606,6.606,0,0,1-3.779-3.779,9.477,9.477,0,0,1-.6-3.136c-.064-1.378-.078-1.818-.078-5.327s.015-3.949.078-5.327a9.48,9.48,0,0,1,.6-3.136,6.611,6.611,0,0,1,3.779-3.779,9.488,9.488,0,0,1,3.136-.6C18.551,9.6,18.991,9.58,22.5,9.58s3.949.015,5.327.078a9.49,9.49,0,0,1,3.136.6,6.608,6.608,0,0,1,3.779,3.779,9.478,9.478,0,0,1,.6,3.136c.063,1.378.078,1.818.078,5.327S35.405,26.449,35.342,27.827Zm0,0"/>
</svg>
